<svg viewBox="0 0 300 200" xmlns="http://www.w3.org/2000/svg" role="img" aria-labelledby="logoTitle logoDesc" preserveAspectRatio="xMidYMid meet">
  <title id="logoTitle">Tullips Creative Green Spaces</title>
  <desc id="logoDesc">Tulip emblem with wreath and the text TULLIPS Creative Green Spaces</desc>
  <defs>
    <style>
      .logo-text { font-family: 'Georgia', serif; font-weight: bold; }
      .subtitle-text { font-family: 'Arial', sans-serif; font-weight: normal; }
      .stroke { stroke: currentColor; }
      .fill { fill: currentColor; }
    </style>
  </defs>
  <g fill="none" stroke="none" color="#2e7d32">
    <circle cx="150" cy="80" r="60" class="stroke" stroke-width="2"/>
    <g transform="translate(150, 80)">
      <path d="M-8,-15 Q-12,-25 -8,-35 Q-4,-25 -8,-15 Z" class="fill"/>
      <path d="M8,-15 Q12,-25 8,-35 Q4,-25 8,-15 Z" class="fill"/>
      <path d="M-4,-15 Q0,-25 4,-15 Q0,-5 -4,-15 Z" class="fill"/>
      <path d="M-6,-20 Q-2,-30 2,-20 Q-2,-10 -6,-20 Z" class="fill"/>
      <path d="M6,-20 Q2,-30 -2,-20 Q2,-10 6,-20 Z" class="fill"/>
      <line x1="0" y1="-15" x2="0" y2="15" class="stroke" stroke-width="3"/>
      <path d="M0,5 Q-15,10 -20,25 Q-15,15 0,5 Z" class="fill"/>
      <path d="M0,5 Q15,10 20,25 Q15,15 0,5 Z" class="fill"/>
    </g>
    <g transform="translate(150, 80)">
      <path d="M-60,0 Q-70,-20 -65,-40 Q-55,-20 -60,0 Z" class="fill"/>
      <path d="M-55,-10 Q-65,-30 -60,-50 Q-50,-30 -55,-10 Z" class="fill"/>
      <path d="M60,0 Q70,-20 65,-40 Q55,-20 60,0 Z" class="fill"/>
      <path d="M55,-10 Q65,-30 60,-50 Q50,-30 55,-10 Z" class="fill"/>
      <ellipse cx="-70" cy="-30" rx="3" ry="8" class="fill" transform="rotate(-30 -70 -30)"/>
      <ellipse cx="-65" cy="-45" rx="3" ry="8" class="fill" transform="rotate(20 -65 -45)"/>
      <ellipse cx="70" cy="-30" rx="3" ry="8" class="fill" transform="rotate(30 70 -30)"/>
      <ellipse cx="65" cy="-45" rx="3" ry="8" class="fill" transform="rotate(-20 65 -45)"/>
    </g>
    <text x="150" y="160" text-anchor="middle" class="logo-text fill" font-size="24">TULLIPS</text>
    <text x="150" y="180" text-anchor="middle" class="subtitle-text fill" font-size="12">CREATIVE GREEN SPACES</text>
  </g>
</svg>
